<svg width="171" height="200" viewBox="0 0 171 200" fill="#00B37E" xmlns="http://www.w3.org/2000/svg">
<path d="M136.825 97.1687C149.125 97.9875 160.131 89.5875 162.544 77.5125C159.575 72.9187 154.5 70.1562 149.037 70.1562C134.837 69.8312 127.219 86.725 136.831 97.175L136.825 97.1687ZM79.4687 29.3562L112.962 9.95624L102.287 3.93749L56.0937 30.6937L59.775 32.7437L66.7687 36.675L79.4687 29.325V29.3562ZM117.256 8.16874C117.812 8.33749 118.262 8.79374 118.431 9.34374L133.956 56.8C134.25 57.6187 133.925 58.5 133.175 58.95C120.875 66.175 114.95 80.7562 118.694 94.5312C122.794 109.475 137.05 119.237 152.45 117.675C153.294 117.606 154.106 118.131 154.369 118.944L170.387 167.712C170.644 168.531 170.319 169.406 169.606 169.862L120.487 199.681C120.256 199.812 119.962 199.906 119.669 199.906C119.244 200.006 118.794 199.906 118.4 199.65L101.119 188.419C100.819 188.225 100.594 187.937 100.437 187.612L66.7125 107.012L15.3437 137.481C15.2437 137.55 15.1125 137.612 15.0187 137.681C14.4937 137.906 13.875 137.837 13.3875 137.55L1.76874 130.719C0.918737 130.262 0.593737 129.187 1.04999 128.337L50.7562 29.9062C50.9125 29.55 51.2375 29.2562 51.6 29.0875L101.344 0.281239C101.894 -0.0437612 102.575 -0.0750112 103.169 0.249989L117.256 8.16874ZM65.2437 40.0437L53.1687 33.2375L5.08749 128.419L13.8125 133.562L55.2562 77.2187C55.65 76.6625 56.3 76.3687 56.95 76.4687C57.6 76.5375 58.15 76.95 58.4187 77.575L103.594 185.675L115.675 193.494L65.2812 40.0437H65.2437ZM149.031 106.025C134.931 106.025 125.362 91.7 130.762 78.675C136.137 65.6562 153.031 62.3062 162.987 72.2687C166.706 75.975 168.787 80.9937 168.787 86.2375C168.819 97.1687 159.962 106.031 149.031 106.031V106.025Z" fill="#00B37E"/>
</svg>
