<svg width="148" height="200" viewBox="0 0 148 200" fill="#00B37E" xmlns="http://www.w3.org/2000/svg">
<path d="M48.7066 155.753L57.2866 150.713L47.6999 153.38C40.4333 155.413 36.9866 158.147 37.4399 161.493C38.2466 167.38 52.4266 171.987 69.7199 171.987C78.4199 171.987 91.5533 170.8 104.813 165.113L107.733 163.86L104.767 162.713C98.7333 160.367 94.3399 157.633 94.2933 157.607L93.8666 157.333L93.3733 157.427C82.8399 159.433 76.0799 160.2 69.2666 160.2C64.8133 160.2 60.0999 159.887 53.4933 159.133C47.7266 158.453 47.2066 157.287 47.1999 157.273C47.1666 157.02 47.8999 156.24 48.7066 155.753Z" fill="#00B37E"/>
<path d="M64.5533 190.713C102.487 190.713 136.08 183.5 137.92 174.973C138.26 173.4 137.767 171.133 133.493 169.207L125.2 165.467L132.127 171.38C132.14 171.38 133.147 172.267 132.94 173.24C132.807 173.88 131.92 175.547 126.527 177.173C115.34 180.56 90.2466 182.927 65.4999 182.927C42.4066 182.927 24.6133 180.947 16.6733 177.487C15.6866 177.06 15.4733 176.733 15.4533 176.733C15.6933 175.52 21.6199 172.933 26.5933 171.867C29.6866 171.2 31.7733 171.127 32.5333 171.127L37.5199 171.427L33.7733 168.793C32.5066 167.893 30.5599 167.44 27.9799 167.44C18.5199 167.44 1.07993 173.68 0.586601 179.82C0.199934 184.6 8.63327 185.967 11.4066 186.407C29.0066 189.273 46.8799 190.713 64.5533 190.713Z" fill="#00B37E"/>
<path d="M50.6066 129.587L42.9866 132.113C34.8333 134.82 31.14 137.78 31.6866 141.14C32.7133 147.533 49.6133 150.4 65.9133 150.4C80.0533 150.4 95.04 148.293 108.113 144.473L111.973 143.34L108.18 142C103.647 140.413 100.7 137.453 100.667 137.427L100.18 136.933L99.5 137.067C86.6666 139.54 76.5266 140.647 66.6 140.647C61.04 140.647 55.28 140.307 47.92 139.54C42.7133 139.007 42.1066 137.733 42.0333 137.48C41.8133 136.66 43.1266 135.16 44.1666 134.38L50.6066 129.587C53.26 129.653 55.3866 129.667 56.5866 129.667C75.6066 129.667 93.84 127.753 106.607 124.38L107.013 124.2C110.587 121.767 115.627 119.593 115.68 119.567L126.053 115.113L114.94 117.093C114.8 117.133 100.14 119.733 85.7533 120.947C82.34 121.233 78.8866 121.453 75.4466 121.64L80.7466 118.907C81.3 118.633 94.32 111.8 96.7933 101.62C97.8133 97.42 96.9066 93.2933 94.0866 89.32L92.7866 87.5067C88.6533 81.7733 85.3933 77.24 86.48 72.1667C87.96 65.26 97.6933 56.9067 118.04 45.1L125.973 40.5L117.073 42.72C115.56 43.1 79.96 52.2133 73.6533 72.1933C71.0866 80.3267 73.7733 89.04 81.6333 98.1C84.04 100.88 85.14 103.813 84.8933 106.813C84.4266 112.493 79.3733 116.72 79.32 116.76L73.2533 121.773C59.3866 122.473 46.2266 122.4 39.2733 121.46C33.6066 120.707 32.76 119.82 32.72 119.807C33.2733 118.22 42.0466 114.913 51.9266 112.567L60.2 110.6L51.7133 110C51.7133 110 51.2133 109.96 50.2866 109.96C45.92 109.96 34.2666 110.673 20.4533 117.353C19.2533 117.927 15.62 119.687 16.2466 122.407C17.54 128.02 39.0933 129.307 50.6066 129.587Z" fill="#00B37E"/>
<path d="M117.6 112.433L115.447 115.807L119.173 114.32C119.187 114.32 120.427 113.84 123.133 113.267C127.7 112.327 134.193 115.027 135.633 120.907C136.527 124.553 136.24 134.24 114.427 145.567L114 145.86L113.813 146.267C113.78 146.347 113.64 146.513 113.527 146.62L105.193 151.413L114.62 148.94C139.793 142.327 147.533 130.387 146.38 121.413C145.387 113.72 138.173 108.12 129.22 108.12C126.633 108.12 124 108.587 121.38 109.513C118.933 110.367 117.653 112.347 117.6 112.433Z" fill="#00B37E"/>
<path d="M72.98 111.9L77.4933 115.973L75.0333 110.413C73.3533 106.613 70.7466 102.893 68.2266 99.3067C59.48 86.8533 51.22 75.08 74.6666 56.5733C90.4266 44.1267 98.7733 31.8667 99.4666 20.12C100.087 9.60667 94.2 3.59333 93.9466 3.33333L90.6066 0L91.7733 4.57333C97 25.1867 83.2866 35.92 68.7666 47.2933C61.72 52.8067 54.4466 58.5067 49.9 65.3267C40.0066 80.1667 55.1733 95.82 72.98 111.9Z" fill="#00B37E"/>
<path d="M144.087 179.753C144.06 179.82 140.913 185.6 116.093 190.273C101.753 192.967 84.8399 194.4 67.1999 194.4C52.6932 194.4 38.7465 193.427 27.9199 191.64L23.1865 190.86L26.8865 193.92C27.3799 194.327 32.3465 197.933 55.1199 199.387C61.4932 199.807 68.1932 200 75.0399 200C91.4799 200 145.173 198.593 146.567 180.393L147.053 173.807L144.087 179.753Z" fill="#00B37E"/>
</svg>
