<svg width="263" height="200" viewBox="0 0 263 200" fill="#00B37E" xmlns="http://www.w3.org/2000/svg">
<path d="M57.1841 3.16071H100.861V125.574C100.861 180.746 74.4258 199.999 32.1837 199.999C21.8396 199.999 8.62164 198.275 0 195.402L4.88523 160.058C10.9198 162.069 18.6784 163.506 27.2985 163.506C45.689 163.506 57.1841 155.172 57.1841 125.287V3.16071V3.16071Z" fill="#00B37E"/>
<path d="M138.784 152.01C150.278 158.045 168.669 164.079 187.347 164.079C207.462 164.079 218.094 155.747 218.094 142.815C218.094 131.034 208.899 123.851 185.623 115.804C153.439 104.31 132.175 86.4939 132.175 58.0466C132.175 25.0003 160.048 0 205.45 0C227.577 0 243.38 4.3116 254.875 9.77047L245.105 44.8276C237.634 41.0927 223.553 35.6323 204.876 35.6323C185.911 35.6323 176.715 44.5402 176.715 54.3107C176.715 66.6672 187.347 72.126 212.635 81.897C246.829 94.5409 262.634 112.357 262.634 139.943C262.634 172.414 237.921 200 184.761 200C162.634 200 140.794 193.965 129.876 187.931L138.784 152.01Z" fill="#00B37E"/>
</svg>
