<svg width="332" height="200" viewBox="0 0 332 200" fill="#00B37E" xmlns="http://www.w3.org/2000/svg">
<path d="M78.2303 52.1604H140.748V57.1222H83.957V94.5421H137.358V99.5038H83.957V140.583H141.41V145.483H78.2303V52.1604ZM146.454 52.1604H153.111L182.551 93.2189L212.632 52.1604L253.566 0L186.314 97.5398L220.881 145.483H213.976L182.448 101.861L150.796 145.483H144.015L178.933 97.4778L146.454 52.1604ZM223.444 57.1222V52.1604H294.707V57.1222H261.774V145.483H256.047V57.1222H223.444ZM0.165396 52.1604H7.31859L106.119 200L65.123 145.483L5.97478 59.2309L5.72669 145.483H0L0.165396 52.1604ZM293.943 139.074C293.394 139.074 292.868 138.856 292.481 138.468C292.093 138.081 291.875 137.555 291.875 137.006C291.875 136.458 292.093 135.932 292.481 135.545C292.868 135.157 293.394 134.939 293.943 134.939C294.491 134.939 295.017 135.157 295.404 135.545C295.792 135.932 296.01 136.458 296.01 137.006C296.01 137.555 295.792 138.081 295.404 138.468C295.017 138.856 294.491 139.074 293.943 139.074ZM299.587 133.595H302.646C302.648 133.983 302.729 134.366 302.886 134.72C303.043 135.074 303.271 135.393 303.556 135.655C303.841 135.917 304.178 136.117 304.544 136.243C304.911 136.369 305.299 136.418 305.685 136.386C307.753 136.386 308.807 135.187 308.807 132.934V118.607H311.929V132.872C312.02 133.716 311.923 134.57 311.646 135.372C311.369 136.175 310.918 136.906 310.326 137.515C309.734 138.123 309.014 138.593 308.219 138.891C307.424 139.189 306.573 139.308 305.727 139.239C304.95 139.302 304.169 139.203 303.433 138.947C302.697 138.692 302.022 138.285 301.452 137.754C300.882 137.223 300.429 136.579 300.122 135.863C299.815 135.147 299.661 134.374 299.669 133.595H299.587ZM316.022 133.43H319.123C319.371 135.332 321.191 136.552 323.94 136.552C326.69 136.552 328.282 135.249 328.282 133.471C328.282 131.693 327.124 131.011 324.457 130.37L321.852 129.75C318.214 128.902 316.56 127.145 316.56 124.189C316.56 120.591 319.496 118.214 323.878 118.214C328.261 118.214 330.949 120.591 331.135 123.982H328.096C327.896 123.035 327.347 122.199 326.557 121.639C325.768 121.08 324.797 120.838 323.837 120.963C321.377 120.963 319.702 122.162 319.702 123.961C319.702 125.408 320.757 126.235 323.382 126.856L325.594 127.393C329.729 128.344 331.424 130.039 331.424 133.058C331.424 136.903 328.447 139.26 323.672 139.26C319.33 139.281 316.332 137.027 316.105 133.43H316.022Z" fill="#00B37E010101"/>
</svg>
