<svg width="178" height="200" viewBox="0 0 178 200" fill="#00B37E" xmlns="http://www.w3.org/2000/svg">
<path d="M88.626 200C85.8736 200 83.3047 199.265 80.9194 197.979L56.5151 183.463C52.8453 181.442 54.6802 180.707 55.7812 180.34C60.7354 178.686 61.6529 178.319 66.7906 175.379C67.3411 175.011 68.075 175.195 68.6255 175.563L87.3415 186.771C88.0755 187.138 88.993 187.138 89.5434 186.771L162.756 144.327C163.49 143.96 163.857 143.225 163.857 142.306V57.6022C163.857 56.6835 163.49 55.9486 162.756 55.5811L89.5434 13.3211C88.8095 12.9536 87.892 12.9536 87.3415 13.3211L14.1288 55.5811C13.3948 55.9486 13.0278 56.8672 13.0278 57.6022V142.306C13.0278 143.041 13.3948 143.96 14.1288 144.327L34.1293 155.903C44.9552 161.415 51.7444 154.984 51.7444 148.553V64.9518C51.7444 63.8493 52.6618 62.7469 53.9462 62.7469H63.3043C64.4052 62.7469 65.5062 63.6656 65.5062 64.9518V148.553C65.5062 163.068 57.6161 171.52 43.8543 171.52C39.634 171.52 36.3311 171.52 26.9731 166.927L7.70661 155.903C2.93585 153.147 0 148.002 0 142.49V57.7859C0 52.2738 2.93585 47.1291 7.70661 44.373L80.9194 1.92926C85.5066 -0.643086 91.7453 -0.643086 96.3326 1.92926L169.545 44.373C174.316 47.1291 177.252 52.2738 177.252 57.7859V142.49C177.252 148.002 174.316 153.147 169.545 155.903L96.3326 198.346C93.9472 199.449 91.1948 200 88.626 200ZM111.195 141.755C79.0845 141.755 72.4788 127.056 72.4788 114.561C72.4788 113.459 73.3963 112.356 74.6807 112.356H84.2222C85.3231 112.356 86.2406 113.091 86.2406 114.194C87.7085 123.932 91.9288 128.709 111.379 128.709C126.792 128.709 133.398 125.218 133.398 116.95C133.398 112.173 131.563 108.682 107.526 106.293C87.525 104.272 75.0477 99.8622 75.0477 83.8769C75.0477 68.994 87.525 60.1746 108.443 60.1746C131.93 60.1746 143.49 68.2591 144.958 85.898C144.958 86.4492 144.774 87.0005 144.407 87.5517C144.04 87.9192 143.49 88.2866 142.939 88.2866H133.398C132.48 88.2866 131.563 87.5517 131.379 86.633C129.177 76.5273 123.489 73.22 108.443 73.22C91.5618 73.22 89.5434 79.0997 89.5434 83.5094C89.5434 88.8378 91.9288 90.4915 114.682 93.4313C137.251 96.3712 147.893 100.597 147.893 116.399C147.71 132.568 134.499 141.755 111.195 141.755Z" fill="#00B37E"/>
</svg>
