<svg width="225" height="201" viewBox="0 0 225 201" fill="#00B37E" xmlns="http://www.w3.org/2000/svg">
<path d="M133.135 100.137C133.135 102.824 132.605 105.485 131.576 107.967C130.546 110.45 129.038 112.706 127.136 114.606C125.234 116.506 122.976 118.013 120.491 119.042C118.007 120.07 115.343 120.599 112.654 120.599C109.964 120.599 107.301 120.07 104.816 119.042C102.331 118.013 100.073 116.506 98.1716 114.606C96.2697 112.706 94.7611 110.45 93.7319 107.967C92.7026 105.485 92.1729 102.824 92.1729 100.137C92.1729 94.7095 94.3307 89.5047 98.1716 85.6672C102.012 81.8296 107.222 79.6737 112.654 79.6737C118.086 79.6737 123.295 81.8296 127.136 85.6672C130.977 89.5047 133.135 94.7095 133.135 100.137V100.137Z" fill="#00B37E"/>
<path d="M112.654 175.384C128.734 191.005 144.582 200.244 157.357 200.244C161.544 200.244 165.509 199.363 168.805 197.386C180.253 190.782 184.44 174.28 180.475 150.738C179.816 146.554 178.934 142.38 177.83 137.974C182.231 136.657 186.195 135.331 190.159 134.013C212.404 125.433 224.734 113.55 224.734 100.573C224.734 87.3731 212.404 75.4907 190.159 67.1327C186.195 65.5929 182.231 64.2755 177.83 63.1719C178.934 58.7748 179.816 54.5916 180.475 50.4083C184.217 26.4295 180.039 9.70514 168.582 3.10092C165.277 1.12479 161.313 0.243652 157.135 0.243652C144.582 0.243652 128.503 9.48271 112.431 25.1036C96.5739 9.48271 80.7166 0.243652 67.9503 0.243652C63.7634 0.243652 59.7991 1.12479 56.5026 3.10092C45.0549 9.70514 40.868 26.2071 44.8323 49.7496C45.4916 53.9329 46.3735 58.1075 47.478 62.5132C43.077 63.8306 39.1127 65.1566 35.1484 66.474C12.9037 75.0544 0.574036 86.9368 0.574036 99.9143C0.574036 113.114 12.9037 124.997 35.1484 133.355C39.1127 134.894 43.077 136.212 47.478 137.315C46.4043 141.528 45.5215 145.787 44.8323 150.079C41.0906 173.621 45.269 190.346 56.5026 196.728C59.8076 198.712 63.772 199.585 67.9503 199.585C80.7252 200.021 96.5825 190.782 112.654 175.384ZM100.316 145.682C104.28 145.904 108.467 145.904 112.645 145.904C116.824 145.904 121.011 145.904 124.975 145.682C121.092 150.781 116.978 155.699 112.645 160.422C108.31 155.701 104.195 150.783 100.316 145.682V145.682ZM73.0106 123.021C75.2111 126.759 77.1976 130.283 79.6207 133.799C73.1191 132.966 66.6548 131.864 60.2443 130.497C62.2307 124.56 64.4312 118.392 67.0684 112.233C68.8322 115.749 70.8101 119.496 73.0106 123.012V123.021ZM60.2358 69.99C66.4006 68.6726 72.788 67.569 79.6121 66.6879C77.4116 70.2124 75.2111 73.7284 73.0021 77.4668C70.793 81.2052 68.8151 84.7297 67.0599 88.4681C64.3721 82.466 62.0922 76.2898 60.2358 69.9815V69.99ZM72.3513 100.137C75.2111 94.1998 78.2935 88.2543 81.8212 82.3173C85.1262 76.5942 88.8679 70.8797 92.6096 65.1566C105.958 64.2701 119.35 64.2701 132.698 65.1566C136.662 70.8797 140.181 76.5942 143.486 82.3173C147.014 88.2543 150.096 94.1998 152.956 100.137C150.062 106.212 146.902 112.157 143.486 117.956C140.181 123.679 136.44 129.394 132.698 135.117C119.35 136.003 105.958 136.003 92.6096 135.117C88.7786 129.547 85.1794 123.822 81.8212 117.956C78.4073 112.156 75.2477 106.211 72.3513 100.137V100.137ZM158.462 88.2543L152.52 77.2529C150.319 73.5145 148.333 69.99 145.91 66.474C152.734 67.3552 159.121 68.4587 165.286 69.7761C163.308 75.9355 161.099 82.0949 158.462 88.2628V88.2543ZM158.462 112.019C161.108 118.179 163.308 124.338 165.286 130.283C159.121 131.601 152.734 132.704 145.91 133.586C148.11 130.061 150.311 126.545 152.52 122.807C154.506 119.505 156.484 115.766 158.462 112.028V112.019ZM163.522 188.37C161.758 189.473 159.558 189.91 157.135 189.91C146.346 189.91 132.912 181.107 119.701 167.907C126.432 160.616 132.684 152.898 138.418 144.801C148.356 143.99 158.221 142.446 167.932 140.181C169.036 144.142 169.695 148.103 170.355 152.064C173.437 170.764 171.014 184.187 163.531 188.37H163.522ZM174.978 72.411C199.646 79.4515 214.399 90.2304 214.399 100.137C214.399 108.717 204.27 117.297 186.435 124.124C182.907 125.441 178.951 126.767 174.987 127.862C171.991 118.399 168.387 109.138 164.198 100.137C168.599 90.6752 172.35 81.4362 174.987 72.411H174.978ZM157.357 10.3638C159.78 10.3638 161.758 10.8001 163.745 11.9037C171.014 16.0869 173.651 29.2868 170.569 48.2098C169.91 51.9482 169.028 55.909 168.146 60.0922C158.396 58.0346 148.544 56.4926 138.632 55.4727C132.965 47.3248 126.709 39.6021 119.915 32.3665C133.126 19.3805 146.56 10.3638 157.349 10.3638H157.357ZM124.983 54.5916C121.019 54.3691 116.832 54.3691 112.654 54.3691C108.475 54.3691 104.288 54.3691 100.324 54.5916C104.288 49.3133 108.475 44.4714 112.654 39.8518C116.841 44.4714 121.019 49.5358 124.983 54.5916ZM61.7769 11.9037C63.5408 10.8001 65.7413 10.3638 68.1644 10.3638C78.9528 10.3638 92.387 19.1666 105.599 32.3665C98.865 39.6552 92.6128 47.3736 86.8814 55.4727C76.9429 56.2834 67.078 57.8275 57.3674 60.0922C56.2629 56.1314 55.6036 52.1706 54.9443 48.2098C51.8619 29.5092 54.285 16.3094 61.7684 11.9037H61.7769ZM50.3292 127.862C25.6614 120.822 10.9087 110.043 10.9087 100.137C10.9087 91.5564 21.0378 82.976 38.873 76.1579C42.4006 74.8405 46.3564 73.5145 50.3207 72.4195C53.317 81.8834 56.9206 91.1445 61.1091 100.145C56.7081 109.607 52.9578 119.068 50.3207 127.871L50.3292 127.862ZM54.9528 152.064C55.6121 148.325 56.494 144.364 57.376 140.181C66.6232 142.166 76.5383 143.706 86.89 144.801C92.5566 152.949 98.8123 160.671 105.607 167.907C92.3955 180.884 78.9614 189.91 68.173 189.91C65.7498 189.91 63.772 189.473 61.7855 188.37C54.2936 184.187 51.879 170.764 54.9614 152.064H54.9528Z" fill="#00B37E"/>
</svg>
