<svg width="200" height="200" viewBox="0 0 200 200" fill="#00B37E" xmlns="http://www.w3.org/2000/svg">
<path d="M111.541 186C111.585 185.531 111.713 184.994 111.902 184.585C112.12 184.099 112.475 183.737 112.754 183.479C112.898 183.345 113.013 183.245 113.114 183.157C113.253 183.035 113.367 182.936 113.497 182.802C115.611 180.585 117.729 178.375 119.846 176.167C125.089 170.697 130.324 165.235 135.48 159.688L135.506 159.66L135.534 159.634C137.687 157.645 139.351 155.185 140.396 152.446C141.436 149.719 141.834 146.789 141.558 143.883C141.433 143.163 141.286 142.447 141.117 141.736C139.634 143.133 138.215 144.451 136.793 145.773L136.675 145.882L111.541 186ZM111.541 186H57.4221L99.8339 150.063L99.8341 150.063C100.829 149.219 101.83 148.386 102.846 147.54L102.991 147.418C103.636 146.881 104.288 146.339 104.947 145.785C105.22 148.07 106.081 150.25 107.453 152.11C108.996 154.205 111.119 155.801 113.559 156.704C115.978 157.748 118.656 158.037 121.242 157.533C123.828 157.028 126.201 155.754 128.05 153.877C130.267 151.855 132.463 149.808 134.655 147.764C135.329 147.136 136.001 146.509 136.674 145.883L111.541 186Z" stroke="black" stroke-width="2"/>
<path d="M122.118 113.754C123.822 112.221 125.526 110.689 127.231 109.163C127.631 112.762 127.429 116.406 126.628 119.945C126.459 120.305 126.198 120.614 125.872 120.842L125.829 120.872L125.789 120.907C121.721 124.429 117.634 127.934 113.528 131.419L53.3456 182.476C52.57 183.001 51.8837 183.648 51.313 184.391L52.1062 185L51.2279 184.522C50.9853 184.967 50.8493 185.463 50.8306 185.97C50.8298 185.99 50.8293 186.011 50.8289 186.031H13.9312V171.904C14.2317 172.143 14.5656 172.313 14.9374 172.389C15.5954 172.523 16.1753 172.325 16.615 172.079C17.0453 171.838 17.4278 171.502 17.7306 171.223C17.8346 171.127 17.9279 171.039 18.0142 170.957C18.2091 170.773 18.3676 170.624 18.5303 170.494L18.5307 170.493C42.6267 151.223 66.7269 131.937 90.8312 112.637L90.8347 112.634C91.0169 112.487 91.2 112.347 91.3937 112.204V112.207V112.21V112.213V112.216V112.219V112.222V112.225V112.228V112.231V112.235V112.238V112.241V112.244V112.247V112.249C91.2665 114.778 91.8919 117.288 93.1912 119.462C94.4926 121.64 96.4112 123.381 98.7037 124.467C100.966 125.613 103.533 126.013 106.037 125.611C108.535 125.21 110.842 124.03 112.63 122.24C115.805 119.429 118.964 116.59 122.118 113.754ZM55.7711 103.245C56.0463 103.03 56.3309 102.826 56.6425 102.607C57.0786 104.67 57.9685 106.618 59.2558 108.306C60.8868 110.444 63.0893 112.077 65.609 113.016C68.1287 113.956 70.8627 114.164 73.4955 113.616C76.1275 113.068 78.551 111.787 80.4862 109.921C83.5332 106.996 86.6332 104.135 89.7423 101.266C91.1025 100.01 92.4646 98.7533 93.8246 97.4886L93.828 97.4854L94.4685 96.8843C95.3837 98.829 95.6631 99.9548 95.5071 100.846C95.3283 101.868 94.5246 102.846 92.4057 104.545C66.6935 125.12 40.9937 145.713 15.3065 166.325C15.1385 166.46 14.9475 166.586 14.7096 166.743C14.6214 166.801 14.5267 166.864 14.4243 166.933C14.2704 167.036 14.1013 167.153 13.9312 167.283V134.737C14.3225 134.744 14.7153 134.691 15.0955 134.576L15.1843 134.549L15.2666 134.506C16.1546 134.046 16.9705 133.458 17.6886 132.762L55.7688 103.247L55.7711 103.245Z" stroke="black" stroke-width="2"/>
<path d="M158.688 15.4357L158.688 15.4357L158.689 15.4318C158.821 14.9906 158.948 14.4738 158.969 13.9688H183.252C183.13 14.5739 183.111 15.1956 183.194 15.8083V42.7522C175.426 43.1369 167.691 41.4325 160.796 37.8086L160.77 37.7948L160.743 37.7825C158.573 36.8015 156.847 35.0449 155.905 32.8573C154.963 30.6697 154.873 28.2091 155.651 25.9582L155.663 25.923L155.673 25.8871C156.599 22.386 157.627 18.9122 158.688 15.4357Z" stroke="black" stroke-width="2"/>
<path d="M102.016 75.1139L102.014 75.1362L102.013 75.1585C101.892 78.0722 100.873 80.8772 99.0959 83.189C92.338 91.9124 84.5773 99.8104 75.9739 106.72L75.9465 106.742L75.9208 106.766C74.6784 107.916 73.1038 108.643 71.4228 108.843C69.7418 109.042 68.0407 108.704 66.5636 107.877L66.517 107.851L66.4679 107.83C65.0042 107.205 63.77 106.142 62.9349 104.787C62.1023 103.436 61.7072 101.86 61.8035 100.276C61.9855 98.3058 62.8015 96.4476 64.1287 94.9802C73.7678 85.792 84.2104 77.4854 95.3314 70.1601L95.3659 70.1374L95.3984 70.1119C95.9656 69.6671 96.6584 69.4119 97.3787 69.3823C98.0989 69.3528 98.8102 69.5504 99.412 69.9473L99.4234 69.9548L99.4351 69.962C100.299 70.4986 100.998 71.264 101.453 72.1734C101.909 73.0828 102.104 74.1006 102.016 75.1139Z" stroke="black" stroke-width="2"/>
<path d="M96.5218 113.001L96.5208 112.989L96.5195 112.977C96.3906 111.749 96.5482 110.508 96.9799 109.352C97.4113 108.196 98.1047 107.156 99.0055 106.314C108.45 97.6028 118.583 89.6689 129.306 82.5895C129.439 82.5052 129.555 82.4289 129.667 82.356C129.861 82.2295 130.039 82.1133 130.256 81.9838L130.294 81.9614L130.329 81.9358C131.09 81.3864 132.012 81.1056 132.95 81.1377C133.887 81.1697 134.786 81.5116 135.507 82.1097C136.208 82.7048 136.704 83.5056 136.925 84.3985C137.146 85.2928 137.08 86.2341 136.735 87.0885L136.718 87.131L136.705 87.1749C135.392 91.5482 132.968 95.5069 129.671 98.6653L129.664 98.672L129.657 98.6788C122.766 105.539 115.61 112.177 108.435 118.777L108.415 118.795L108.396 118.815C107.464 119.774 106.24 120.395 104.916 120.581C103.592 120.767 102.244 120.508 101.084 119.845L101.066 119.834L101.049 119.825C99.7775 119.165 98.6952 118.192 97.9033 116.998C97.1115 115.805 96.6361 114.429 96.5218 113.001Z" stroke="black" stroke-width="2"/>
<path d="M135.23 126.674C135.699 126.853 136.47 127.115 137.22 126.86C140.073 125.902 142.883 124.8 145.843 123.639C146.162 123.513 146.483 123.388 146.806 123.261C146.286 124.527 145.805 125.68 145.2 126.792C141.263 133.405 136.334 139.374 130.585 144.491L130.57 144.504L130.556 144.518C128.359 146.636 126.077 148.662 123.711 150.594L123.711 150.594L123.705 150.599C122.577 151.535 121.221 152.155 119.775 152.395C118.328 152.635 116.845 152.486 115.475 151.964C114.105 151.442 112.898 150.566 111.978 149.425C111.062 148.289 110.463 146.931 110.242 145.489C110.159 144.723 110.228 143.949 110.445 143.21C110.66 142.475 111.017 141.789 111.496 141.19C119.126 132.909 127.74 125.598 137.143 119.419C136.295 120.31 135.45 121.212 134.642 122.135L134.602 122.18L134.567 122.23C134.019 123.035 133.564 123.899 133.212 124.807L132.819 125.818L133.859 126.127C134.033 126.179 134.231 126.257 134.47 126.358C134.523 126.381 134.579 126.405 134.637 126.429C134.823 126.509 135.031 126.598 135.23 126.674Z" stroke="black" stroke-width="2"/>
<path d="M157.035 92.4886C156.756 92.5856 156.307 92.5275 155.529 92.0783L166.033 45.4206L172.511 46.9374L168.813 58.1744C168.813 58.1746 168.813 58.1748 168.812 58.175C167.93 60.8453 167.046 63.5159 166.161 66.187C163.423 74.4528 160.683 82.7228 158.019 90.9992C157.678 92.0016 157.345 92.3809 157.035 92.4886Z" stroke="black"/>
<path d="M154.245 111.115C151.389 114.654 147.757 117.482 143.635 119.381C143.887 118.429 144.138 117.491 144.386 116.562C145.164 113.657 145.915 110.848 146.58 108.021C147.49 104.176 149.219 100.572 151.65 97.4577L151.65 97.4577L151.654 97.453C152.32 96.5788 152.979 96.3537 153.654 96.3563C154.014 96.3576 154.394 96.4246 154.809 96.525C155.015 96.575 155.224 96.6318 155.441 96.6911L155.47 96.6988C155.676 96.7551 155.89 96.8134 156.105 96.8666L156.106 96.867C156.796 97.0353 157.179 97.3535 157.415 97.7607C157.666 98.1937 157.78 98.7789 157.813 99.5284L157.813 99.5284L157.813 99.5359C158.06 103.7 156.793 107.813 154.245 111.115Z" stroke="black"/>
<path d="M187.456 18.0875C187.549 16.6955 187.514 15.2979 187.35 13.9125C187.221 13.5255 186.966 13.1931 186.625 12.9688C186.347 12.7432 186.023 12.5829 185.675 12.5C185.475 12.4625 185.194 12.6688 184.925 12.9625C184.665 13.2414 184.444 13.5547 184.269 13.8938C184.111 14.4931 184.077 15.1183 184.169 15.7313V43.6813C175.904 44.2679 167.64 42.5363 160.306 38.6813C157.909 37.5975 156.002 35.657 154.962 33.2403C153.921 30.8237 153.821 28.1054 154.681 25.6188C155.612 22.1 156.644 18.6125 157.706 15.1313C157.956 14.3 158.1 13.4438 157.706 12.9563C157.487 12.7189 157.185 12.5756 156.862 12.5563C156.45 12.5607 156.05 12.7013 155.725 12.9563C155.258 13.2358 154.885 13.6496 154.656 14.1438C153.406 17.8938 152.306 21.6813 151.35 25.5063C150.989 27.0136 150.892 28.572 151.062 30.1125C151.304 32.8998 152.341 35.5592 154.049 37.775C155.758 39.9907 158.066 41.6696 160.7 42.6125C161.881 43.1063 162.575 43.5938 162.244 45.15C161.787 47.125 161.344 49.1 160.894 51.0813C157.831 64.5063 154.785 77.9375 151.756 91.375C151.671 91.9741 151.407 92.5337 151 92.9812C149.003 94.5682 147.326 96.5193 146.056 98.7312C144.438 101.65 143.319 104.819 142.744 108.106C142.633 109.155 142.254 110.157 141.643 111.017C141.033 111.876 140.21 112.564 139.256 113.013C136.65 114.331 134.256 116.037 131.362 117.812C131.555 114.333 131.518 110.844 131.25 107.369C131.03 106.3 131.076 105.193 131.386 104.146C131.696 103.1 132.259 102.146 133.025 101.369C136.837 97.5924 139.554 92.8536 140.887 87.6562C141.286 86.4515 141.395 85.1699 141.206 83.9151C141.018 82.6603 140.536 81.4675 139.801 80.4331C139.066 79.3988 138.098 78.5519 136.975 77.9609C135.852 77.3699 134.606 77.0515 133.337 77.0312C131.283 77.0084 129.266 77.5815 127.531 78.6812C121.55 82.7187 115.731 87.0062 109.956 91.3437C106.537 93.9187 103.319 96.7687 100.006 99.4687C99.8634 99.3154 99.7396 99.1454 99.6374 98.9625C99.5741 98.5023 99.4501 98.0526 99.2687 97.625C96.4999 93.35 98.4187 90.2438 101.425 87.05C104.557 83.767 106.287 79.3934 106.25 74.8563C106.347 72.5445 105.623 70.273 104.206 68.4438C103.451 67.5152 102.521 66.7443 101.469 66.175C99.9736 65.3567 98.2641 65.0152 96.5695 65.1962C94.8748 65.3771 93.276 66.072 91.9874 67.1875L90.2437 68.4375C86.2624 71.2875 82.2312 74.0625 78.3999 77.1125C72.8062 81.5625 67.3437 86.2 61.9874 90.95C59.4874 93.1562 57.6624 96.1687 55.0687 98.2187C41.5437 108.9 27.8749 119.387 14.2562 129.944C13.7879 130.223 13.3573 130.561 12.9749 130.95C12.9356 131.007 12.902 131.068 12.8749 131.131C12.5874 131.8 12.3437 132.906 12.6812 133.312C12.7639 133.401 12.8639 133.471 12.9749 133.519C13.5703 133.766 14.2329 133.799 14.8499 133.612C15.6675 133.188 16.4174 132.645 17.0749 132L55.1999 102.45C55.8812 101.919 56.5999 101.438 57.4312 100.838C57.6547 103.328 58.578 105.705 60.0946 107.693C61.6113 109.681 63.6593 111.199 66.0022 112.073C68.3451 112.947 70.8874 113.14 73.3355 112.631C75.7836 112.121 78.0377 110.93 79.8374 109.194C84.2124 104.981 88.7312 100.894 93.1874 96.75L94.8124 95.225C97.5374 100.556 97.2624 101.962 93.0749 105.319C67.3416 125.91 41.627 146.506 15.9312 167.106C14.8374 167.981 12.6749 168.775 14.0937 170.637C15.5124 172.5 16.8187 170.581 17.9062 169.712C42.0145 150.458 66.1062 131.179 90.1812 111.875C90.8062 111.375 91.4624 110.931 92.3687 110.269C92.3687 111.237 92.3687 111.762 92.3687 112.294C92.2462 114.634 92.8226 116.957 94.0246 118.968C95.2266 120.979 96.9999 122.587 99.1187 123.587C101.195 124.643 103.553 125.012 105.853 124.642C108.153 124.273 110.277 123.184 111.919 121.531C116.875 117.156 121.781 112.694 126.712 108.281C127.025 108 127.387 107.788 127.962 107.35C128.668 111.646 128.53 116.038 127.556 120.281C127.316 120.845 126.922 121.331 126.419 121.681C122.344 125.202 118.254 128.708 114.15 132.2L53.9499 183.3C53.2451 183.77 52.6222 184.353 52.1062 185.025C51.9415 185.332 51.8491 185.672 51.8361 186.019C51.8231 186.367 51.8898 186.713 52.0312 187.031V187.031C52.3136 187.243 52.64 187.388 52.9863 187.456C53.3325 187.524 53.6896 187.514 54.0312 187.425C54.3007 187.347 54.5487 187.208 54.7562 187.019C55.0687 186.769 55.3812 186.45 55.6624 186.194L99.1812 149.319C101.275 147.544 103.387 145.794 105.594 143.944C105.705 144.241 105.795 144.546 105.862 144.856C105.987 147.269 106.818 149.591 108.251 151.536C109.685 153.48 111.657 154.961 113.925 155.794C116.165 156.767 118.647 157.037 121.044 156.57C123.441 156.102 125.64 154.919 127.35 153.175C130.25 150.531 133.112 147.844 135.987 145.169C137.862 143.45 139.675 141.725 141.65 139.869C142.018 141.152 142.316 142.454 142.544 143.769C142.831 146.83 142.409 149.916 141.31 152.787C140.21 155.659 138.464 158.238 136.206 160.325C128.962 168.125 121.556 175.756 114.212 183.45C113.731 183.95 113.069 184.362 112.806 184.956C112.544 185.55 112.375 186.712 112.687 186.962L112.775 187.019C113.43 187.337 114.167 187.449 114.887 187.337C115.089 187.296 115.269 187.183 115.394 187.019C115.569 186.837 115.737 186.612 115.906 186.444C121.856 180.294 127.837 174.175 133.744 167.981C136.128 165.566 138.369 163.014 140.456 160.337C143.178 157.325 144.982 153.597 145.658 149.593C146.333 145.59 145.851 141.477 144.269 137.737C144.099 136.904 144.265 136.037 144.731 135.325C145.137 134.625 145.587 133.944 146.05 133.269C147.53 131.347 148.762 129.248 149.719 127.019C151.567 121.549 154.403 116.464 158.087 112.019C159.781 109.871 160.946 107.356 161.489 104.676C162.032 101.995 161.937 99.2246 161.212 96.5875C160.956 95.5848 160.956 94.5339 161.212 93.5312C164.375 83.7375 167.631 73.975 170.856 64.2062C172.302 59.8312 173.74 55.4688 175.169 51.1188L176.5 47.075C179.337 47.075 182.012 47.0188 184.675 47.075C186.887 47.1375 187.562 46.1 187.537 43.95C187.406 35.325 187.456 26.7063 187.456 18.0875ZM76.5999 107.5C75.2026 108.793 73.4314 109.611 71.5406 109.836C69.6498 110.06 67.7364 109.68 66.0749 108.75C64.4212 108.043 63.0269 106.842 62.0835 105.311C61.14 103.78 60.6938 101.995 60.8062 100.2C61.0063 97.9957 61.9216 95.9172 63.4124 94.2812C73.102 85.042 83.6003 76.6898 94.7812 69.325C95.3914 68.8936 96.0856 68.5955 96.8187 68.45C97.3104 68.3593 97.8145 68.3593 98.3062 68.45C98.895 68.5647 99.4569 68.7895 99.9624 69.1125C100.984 69.747 101.811 70.6524 102.349 71.7281C102.887 72.8039 103.117 74.0078 103.012 75.2062C102.883 78.3266 101.791 81.3306 99.8874 83.8063C93.0809 92.59 85.2647 100.543 76.5999 107.5ZM109.1 119.556C108.013 120.674 106.586 121.398 105.043 121.615C103.499 121.832 101.928 121.53 100.575 120.756C99.1509 120.016 97.9389 118.925 97.0532 117.587C96.1674 116.248 95.6372 114.706 95.5124 113.106C95.3673 111.725 95.5447 110.328 96.0305 109.027C96.5164 107.726 97.2975 106.555 98.3124 105.606C107.8 96.8557 117.979 88.886 128.75 81.775C129.075 81.5687 129.375 81.3625 129.731 81.15C130.672 80.4708 131.812 80.1237 132.972 80.1633C134.131 80.2029 135.245 80.6269 136.137 81.3687C137.001 82.1001 137.612 83.085 137.883 84.1835C138.155 85.282 138.073 86.4381 137.65 87.4875C136.287 92.0262 133.772 96.1346 130.35 99.4125C123.456 106.3 116.287 112.931 109.112 119.531L109.1 119.556ZM146.044 127.313C142.058 134.009 137.069 140.054 131.25 145.237C129.033 147.375 126.731 149.419 124.344 151.369C123.079 152.418 121.559 153.113 119.938 153.381C118.317 153.65 116.654 153.484 115.119 152.899C113.583 152.314 112.231 151.332 111.2 150.052C110.169 148.773 109.496 147.243 109.25 145.619C109.15 144.716 109.23 143.801 109.485 142.929C109.74 142.057 110.166 141.244 110.737 140.537C119.243 131.302 128.963 123.264 139.631 116.644C139.761 116.593 139.898 116.566 140.037 116.562L140.662 117.187C138.912 119.062 137.112 120.85 135.431 122.769C134.926 123.51 134.506 124.307 134.181 125.144C135.106 125.419 136.187 126.144 136.937 125.887C139.956 124.875 142.925 123.7 146.106 122.45L148.675 121.45C147.712 123.575 147.025 125.512 146.056 127.287L146.044 127.313ZM154.625 111.469C152.294 114.437 149.372 116.888 146.044 118.669C145.015 119.244 143.958 119.781 142.875 120.281C143.987 116.025 145.1 112.081 146.044 108.094L146.081 107.931C147.007 104.016 148.768 100.347 151.244 97.175C152.762 95.1813 154.469 95.975 156.212 96.4062C157.825 96.8 158.231 97.9812 158.3 99.5312C158.556 103.814 157.255 108.045 154.637 111.444L154.625 111.469ZM169.25 58.3438C165.637 69.2813 161.981 80.2187 158.456 91.1687C157.794 93.225 156.894 93.6 154.95 92.3625L164.219 51.1563L165.644 44.8313L173.144 46.5875C172.631 48.1313 172.137 49.65 171.637 51.1563L169.25 58.3438Z" fill="#00B37E"/>
</svg>
