<svg width="304" height="200" viewBox="0 0 304 200" fill="#00B37E" xmlns="http://www.w3.org/2000/svg">
<path d="M253.98 1.79668C264.344 4.20773 273.762 9.63457 281.045 17.3924C285.056 21.591 288.54 26.2641 291.417 31.308C291.551 31.8559 272.742 44.4932 261.334 51.5423C260.92 51.8223 259.276 50.0326 257.414 47.2811C255.33 43.699 252.372 40.7035 248.816 38.5745C245.261 36.4454 241.224 35.2523 237.082 35.1065C223.97 34.2056 215.521 41.0721 215.582 52.5528C215.468 55.3733 216.111 58.1728 217.444 60.6611C220.33 66.6267 225.687 70.206 242.512 77.4986C273.484 90.8299 286.779 99.6199 294.985 112.111C299.623 120.004 302.48 128.815 303.354 137.927C304.229 147.04 303.101 156.233 300.049 164.864C295.855 174.329 289.204 182.499 280.786 188.525C272.368 194.552 262.49 198.215 252.179 199.135C241.218 200.393 230.142 200.278 219.21 198.795C202.463 196.043 187.037 188.005 175.186 175.858C170.708 170.815 166.918 165.203 163.912 159.166C165.176 158.226 166.507 157.38 167.894 156.634C169.817 155.538 177.098 151.35 183.964 147.369L196.431 140.064L199.036 143.863C203.424 150.138 209.01 155.484 215.472 159.592C221.998 163.172 229.39 164.868 236.824 164.492C244.258 164.116 251.441 161.682 257.572 157.462C260.735 154.379 262.712 150.282 263.157 145.888C263.602 141.494 262.487 137.083 260.007 133.429C256.647 128.62 249.78 124.578 230.264 116.117C214.961 110.957 201.023 102.404 189.491 91.0977C184 84.8395 179.944 77.4553 177.609 69.4633C175.882 60.3589 175.627 51.0364 176.854 41.8513C179.145 31.2817 184.63 21.672 192.566 14.3243C200.501 6.97661 210.504 2.24618 221.218 0.774015C232.129 -0.529696 243.173 -0.184954 253.98 1.79668ZM152.407 19.8517L152.541 37.5536H96.1727V197.626H56.4225V37.5901H0.0539545V20.2047C-0.0959617 14.251 0.0665898 8.29344 0.54094 2.35671C0.747909 2.07669 35.0195 1.94277 76.5716 2.01582L152.188 2.22279L152.407 19.8517Z" fill="#00B37E"/>
</svg>
